# File created by Blade
# Date/Time:  Wed Jan 21 16:14:13 2015
# Frame Rate: 120.000 fps
#------------------------------------------------------
:FULLY-SPECIFIED
:DEGREES
514
root 18.596708 35.630203 -19.556146 -174.954061 -4.828044 -179.087578
Spine -14.963993 -0.834679 -0.599918
Head 9.454263 -2.485888 0.726617
LeftShoulder -5.510632 -33.709726 18.699023
LeftArm 10.818895 13.485555 -7.469493
LeftForeArm 14.944975 0.000000 -2.631013
LeftHand -9.815502 -0.000000 -2.551182
LeftHandThumb1 -26.253704 0.000000 33.147579
RightShoulder -8.457711 -4.641621 -13.422390
RightArm 5.029515 37.750332 13.181045
RightForeArm -32.255140 0.000000 2.870377
RightHand -4.213668 0.000000 7.843260
RightHandThumb1 -24.326973 -0.000000 -32.862282
LeftUpLeg 0.631189 6.667476 0.527520
LeftLeg -3.958014 -0.000000 0.000000
LeftFoot -20.214289 24.603216 -11.734542
LeftToeBase 27.039605 -0.000000 -0.000000
RightUpLeg -0.378854 -10.244796 1.715148
RightLeg -0.243956 -0.000000 0.000000
RightFoot -22.276315 -26.926276 14.880869
RightToeBase 23.637826 -0.000000 -0.000000
515
root 18.600776 35.631898 -19.532159 -174.927112 -4.924441 -179.111872
Spine -14.945872 -0.895778 -0.592267
Head 9.363501 -2.587099 0.706476
LeftShoulder -5.375771 -33.899289 18.466624
LeftArm 11.327825 13.848372 -7.429642
LeftForeArm 15.020948 -0.000000 -2.589583
LeftHand -9.803250 -0.000000 -2.404223
LeftHandThumb1 -26.253704 0.000000 33.147579
RightShoulder -8.262608 -4.342806 -13.461848
RightArm 5.310989 37.654136 13.127549
RightForeArm -32.375226 -0.000000 2.804431
RightHand -4.191055 0.000000 8.004027
RightHandThumb1 -24.326973 -0.000000 -32.862282
LeftUpLeg 0.551694 6.638604 0.503491
LeftLeg -3.957321 -0.000000 0.000000
LeftFoot -20.138077 24.554408 -11.691753
LeftToeBase 27.021230 -0.000000 -0.000000
RightUpLeg -0.397626 -10.233172 1.707842
RightLeg -0.307541 -0.000000 0.000000
RightFoot -22.218997 -26.992362 14.827369
RightToeBase 23.600709 -0.000000 -0.000000
516
root 18.606711 35.634489 -19.503763 -174.849329 -4.998387 -179.127673
Spine -15.003305 -0.940314 -0.575149
Head 9.323977 -2.717172 0.634864
LeftShoulder -5.157731 -34.048432 18.146928
LeftArm 11.743089 14.141660 -7.289983
LeftForeArm 15.222803 0.000000 -2.446791
LeftHand -9.924031 -0.000000 -2.405758
LeftHandThumb1 -26.253704 0.000000 33.147579
RightShoulder -8.084368 -4.076475 -13.456505
RightArm 5.626954 37.530579 13.030235
RightForeArm -32.394668 -0.000000 2.685193
RightHand -4.088021 -0.000000 8.092237
RightHandThumb1 -24.326973 -0.000000 -32.862282
LeftUpLeg 0.414095 6.633079 0.484360
LeftLeg -3.952521 -0.000000 0.000000
LeftFoot -20.066909 24.494316 -11.664708
LeftToeBase 27.088671 -0.000000 -0.000000
RightUpLeg -0.492687 -10.208924 1.719780
RightLeg -0.347774 -0.000000 0.000000
RightFoot -22.207284 -27.089777 14.848736
RightToeBase 23.645075 -0.000000 -0.000000
517
root 18.613711 35.637026 -19.478843 -174.764320 -5.139215 -179.143662
Spine -15.086504 -1.031455 -0.561004
Head 9.317435 -2.905998 0.556233
LeftShoulder -4.866934 -34.162821 17.770202
LeftArm 12.118289 14.512828 -7.084430
LeftForeArm 15.239391 -0.000000 -2.333617
LeftHand -9.880670 -0.000000 -2.503051
LeftHandThumb1 -26.253704 0.000000 33.147579
RightShoulder -7.919900 -3.802449 -13.377097
RightArm 5.887988 37.428921 12.813026
RightForeArm -32.375811 0.000000 2.589333
RightHand -4.058507 -0.000000 8.130221
RightHandThumb1 -24.326973 -0.000000 -32.862282
LeftUpLeg 0.265184 6.558751 0.468742
LeftLeg -3.950172 -0.000000 0.000000
LeftFoot -19.974357 24.458722 -11.603041
LeftToeBase 27.071298 -0.000000 -0.000000
RightUpLeg -0.580825 -10.299839 1.744910
RightLeg -0.396759 -0.000000 0.000000
RightFoot -22.159705 -27.087566 14.827531
RightToeBase 23.656055 -0.000000 -0.000000
518
root 18.618301 35.638150 -19.454093 -174.702407 -5.236442 -179.150463
Spine -15.131956 -1.090744 -0.531425
Head 9.311283 -3.031537 0.497115
LeftShoulder -4.574164 -34.310624 17.384158
LeftArm 12.440657 14.841093 -6.878312
LeftForeArm 15.223198 -0.000000 -2.226691
LeftHand -9.916715 0.000000 -2.447922
LeftHandThumb1 -26.253704 0.000000 33.147579
RightShoulder -7.753433 -3.466743 -13.307761
RightArm 6.140367 37.365678 12.620210
RightForeArm -32.548802 -0.000000 2.518395
RightHand -3.971481 0.000000 8.140124
RightHandThumb1 -24.326973 -0.000000 -32.862282
LeftUpLeg 0.160788 6.477357 0.461928
LeftLeg -3.972206 -0.000000 0.000000
LeftFoot -19.896766 24.460413 -11.558503
LeftToeBase 27.051335 -0.000000 -0.000000
RightUpLeg -0.643198 -10.310728 1.762693
RightLeg -0.452289 -0.000000 0.000000
RightFoot -22.111762 -27.147289 14.815510
RightToeBase 23.632800 -0.000000 -0.000000
519
root 18.624456 35.639905 -19.430163 -174.614196 -5.347693 -179.179440
Spine -15.212466 -1.165495 -0.541390
Head 9.317950 -3.158461 0.451944
LeftShoulder -4.345375 -34.387271 17.061893
LeftArm 12.807627 15.026898 -6.723827
LeftForeArm 15.344955 -0.000000 -2.153841
LeftHand -9.895278 -0.000000 -2.450054
LeftHandThumb1 -26.253704 0.000000 33.147579
RightShoulder -7.631675 -3.227879 -13.238136
RightArm 6.435292 37.433396 12.528828
RightForeArm -32.684615 -0.000000 2.565590
RightHand -4.030751 0.000000 8.279815
RightHandThumb1 -24.326973 -0.000000 -32.862282
LeftUpLeg 0.005836 6.443521 0.430489
LeftLeg -3.952865 -0.000000 0.000000
LeftFoot -19.818275 24.404846 -11.521700
LeftToeBase 27.072439 -0.000000 -0.000000
RightUpLeg -0.718387 -10.352396 1.767451
RightLeg -0.529127 -0.000000 0.000000
RightFoot -22.078094 -27.228684 14.782414
RightToeBase 23.537110 -0.000000 -0.000000
520
root 18.630552 35.641018 -19.403999 -174.493694 -5.426692 -179.203687
Spine -15.328798 -1.218767 -0.547103
Head 9.323553 -3.291712 0.399310
LeftShoulder -4.123991 -34.488990 16.813693
LeftArm 13.079769 15.229457 -6.651408
LeftForeArm 15.453599 0.000000 -2.112372
LeftHand -9.754522 -0.000000 -2.359446
LeftHandThumb1 -26.253704 0.000000 33.147579
RightShoulder -7.527267 -3.032280 -13.206711
RightArm 6.748098 37.396911 12.513842
RightForeArm -32.785239 -0.000000 2.640579
RightHand -4.132028 -0.000000 8.380016
RightHandThumb1 -24.326973 -0.000000 -32.862282
LeftUpLeg -0.185686 6.411663 0.400822
LeftLeg -3.917440 -0.000000 0.000000
LeftFoot -19.767749 24.356355 -11.476522
LeftToeBase 27.135169 -0.000000 -0.000000
RightUpLeg -0.839167 -10.350836 1.779042
RightLeg -0.588441 -0.000000 0.000000
RightFoot -22.042978 -27.291826 14.751248
RightToeBase 23.611455 -0.000000 -0.000000
521
root 18.638682 35.641968 -19.378861 -174.375905 -5.509737 -179.214251
Spine -15.436903 -1.287708 -0.538139
Head 9.298377 -3.429965 0.331801
LeftShoulder -3.967997 -34.560391 16.649576
LeftArm 13.322245 15.224958 -6.687618
LeftForeArm 15.697486 -0.000000 -2.079098
LeftHand -9.721647 -0.000000 -2.268164
LeftHandThumb1 -26.253704 0.000000 33.147579
RightShoulder -7.388139 -2.796507 -13.236949
RightArm 6.990046 37.406739 12.571560
RightForeArm -32.995713 -0.000000 2.734936
RightHand -4.172710 0.000000 8.415395
RightHandThumb1 -24.326973 -0.000000 -32.862282
LeftUpLeg -0.361662 6.367933 0.388620
LeftLeg -3.910379 -0.000000 0.000000
LeftFoot -19.711372 24.326502 -11.446873
LeftToeBase 27.179447 -0.000000 -0.000000
RightUpLeg -0.922650 -10.251928 1.804411
RightLeg -0.716403 -0.000000 0.000000
RightFoot -21.987002 -27.423602 14.748540
RightToeBase 23.643481 -0.000000 -0.000000
522
root 18.645568 35.643706 -19.359536 -174.309341 -5.608603 -179.209058
Spine -15.486115 -1.373095 -0.501594
Head 9.259614 -3.590570 0.252662
LeftShoulder -3.805895 -34.677676 16.475145
LeftArm 13.527131 15.375991 -6.689775
LeftForeArm 15.799656 -0.000000 -2.067730
LeftHand -9.738742 -0.000000 -2.156338
LeftHandThumb1 -26.253704 0.000000 33.147579
RightShoulder -7.304419 -2.591591 -13.243920
RightArm 7.281464 37.208741 12.596214
RightForeArm -33.027419 -0.000000 2.796188
RightHand -4.167101 -0.000000 8.389949
RightHandThumb1 -24.326973 -0.000000 -32.862282
LeftUpLeg -0.464284 6.319170 0.395547
LeftLeg -3.941221 -0.000000 0.000000
LeftFoot -19.631987 24.319800 -11.410094
LeftToeBase 26.928611 -0.000000 -0.000000
RightUpLeg -0.999678 -10.367507 1.844736
RightLeg -0.743935 -0.000000 0.000000
RightFoot -21.964201 -27.397435 14.744876
RightToeBase 23.680119 -0.000000 -0.000000
523
root 18.654345 35.644482 -19.333747 -174.156606 -5.642990 -179.228214
Spine -15.617231 -1.405614 -0.526269
Head 9.198185 -3.721088 0.243911
LeftShoulder -3.709885 -34.786833 16.404624
LeftArm 13.735252 15.387722 -6.758278
LeftForeArm 15.969437 0.000000 -2.066056
LeftHand -9.735623 -0.000000 -2.154859
LeftHandThumb1 -26.253704 0.000000 33.147579
RightShoulder -7.232520 -2.400972 -13.219993
RightArm 7.584293 37.072408 12.639696
RightForeArm -33.095499 -0.000000 2.815639
RightHand -4.109269 -0.000000 8.477466
RightHandThumb1 -24.326973 -0.000000 -32.862282
LeftUpLeg -0.661367 6.289835 0.366380
LeftLeg -3.945654 -0.000000 0.000000
LeftFoot -19.572589 24.326842 -11.388620
LeftToeBase 27.092369 -0.000000 -0.000000
RightUpLeg -1.152658 -10.273893 1.861157
RightLeg -0.809902 -0.000000 0.000000
RightFoot -21.925817 -27.504748 14.717629
RightToeBase 23.571976 -0.000000 -0.000000
524
root 18.661176 35.645356 -19.315828 -174.085813 -5.731327 -179.238228
Spine -15.655796 -1.503211 -0.518006
Head 9.126237 -3.843980 0.230061
LeftShoulder -3.602812 -34.959899 16.260895
LeftArm 13.932171 15.528016 -6.713759
LeftForeArm 16.020118 -0.000000 -2.080263
LeftHand -9.704151 -0.000000 -2.260803
LeftHandThumb1 -26.253704 0.000000 33.147579
RightShoulder -7.161734 -2.205138 -13.198880
RightArm 7.907098 36.843927 12.666141
RightForeArm -32.993175 -0.000000 2.784001
RightHand -4.059545 -0.000000 8.469085
RightHandThumb1 -24.326973 -0.000000 -32.862282
LeftUpLeg -0.768073 6.211734 0.360110
LeftLeg -3.954926 -0.000000 0.000000
LeftFoot -19.515622 24.329846 -11.346260
LeftToeBase 27.145511 -0.000000 -0.000000
RightUpLeg -1.202664 -10.333547 1.879456
RightLeg -0.888244 -0.000000 0.000000
RightFoot -21.871301 -27.493113 14.671748
RightToeBase 23.705331 -0.000000 -0.000000
525
root 18.668689 35.646385 -19.298165 -173.975853 -5.827764 -179.243015
Spine -15.750579 -1.604815 -0.505708
Head 9.078451 -3.885438 0.211267
LeftShoulder -3.527699 -35.098305 16.126998
LeftArm 14.133123 15.586365 -6.675888
LeftForeArm 16.081738 -0.000000 -2.067450
LeftHand -9.745600 0.000000 -2.299796
LeftHandThumb1 -26.253704 0.000000 33.147579
RightShoulder -7.135407 -2.042560 -13.124024
RightArm 8.286111 36.678900 12.667161
RightForeArm -33.011606 0.000000 2.744456
RightHand -3.970563 0.000000 8.396532
RightHandThumb1 -24.326973 -0.000000 -32.862282
LeftUpLeg -0.918452 6.133837 0.355364
LeftLeg -3.963677 -0.000000 0.000000
LeftFoot -19.473427 24.344717 -11.326134
LeftToeBase 27.200625 -0.000000 -0.000000
RightUpLeg -1.299631 -10.417942 1.915119
RightLeg -0.954957 -0.000000 0.000000
RightFoot -21.820391 -27.484178 14.659424
RightToeBase 23.652462 -0.000000 -0.000000
